# xmcd
#
# Track frame offsets:
#	150
#	15784
#	56389
#	99841
#	131183
#	155180
#	187045
#
# Disc length: 2905 seconds
#
# Revision: 1
# Processed by: cddbd v1.5.2PL0 Copyright (c) Steve Scherf et al.
# Submitted via: audiograbber 1.83.01
#
DISCID=520b5707
DTITLE=Gerry Mulligan - 1956 - 1957
DYEAR=1900
DGENRE=Jazz
TTITLE0=La Plus Que Lente
TTITLE1=Blues In Time
TTITLE2=Body And Soul
TTITLE3=Wintersong
TTITLE4=Rhythm A Ning
TTITLE5=Straight, No Chaser (Take 3)
TTITLE6=I Mean  You (Take 4)
EXTD=
EXTT0=
EXTT1=
EXTT2=
EXTT3=
EXTT4=
EXTT5=
EXTT6=
PLAYORDER=
